#!OML:ASF F:\VICON\USERDATA\INSTALL\rory3\rory3.ASF
:FULLY-SPECIFIED
:DEGREES
231
root 3.94885 17.8317 22.4591 -2.99124 -1.33934 -2.27619
lowerback 10.9413 -1.1655 0.019911
upperback -0.0687902 -1.38033 2.67604
thorax -6.15187 -0.636809 3.0246
lowerneck -17.9236 -2.08121 -2.0997
upperneck 17.8084 -2.14736 -0.68434
head 8.52272 -1.2322 -0.154042
rclavicle -1.61513e-014 -1.19271e-014
rhumerus -37.5112 -26.8714 -71.4891
rradius 22.0265
rwrist 8.91583
rhand -20.4794 21.3619
rfingers 7.12502
rthumb 5.87699 -8.53657
lclavicle -1.61513e-014 -1.19271e-014
lhumerus -30.1572 0.520641 82.0816
lradius 32.9882
lwrist 7.61066
lhand -25.346 25.4327
lfingers 7.12502
lthumb 1.17741 55.4091
rfemur -24.2155 5.27405 25.3895
rtibia 31.0235
rfoot -2.9157 -3.0809
rtoes 10.2035
lfemur 6.82587 -3.01395 -19.5975
ltibia 48.8967
lfoot 17.0141 -15.1843
ltoes 3.6076
232
root 3.92376 17.856 22.6544 -3.03496 -1.39361 -2.82129
lowerback 10.9721 -1.11298 0.550806
upperback -0.0470883 -1.23515 2.78899
thorax -6.16267 -0.579922 2.8209
lowerneck -17.9009 -2.18604 -2.06565
upperneck 17.8951 -2.28776 -0.747671
head 8.54781 -1.30328 -0.198961
rclavicle 1.08959e-014 1.07344e-014
rhumerus -37.2938 -26.6449 -71.7658
rradius 22.0142
rwrist 8.58221
rhand -19.341 22.1588
rfingers 7.12502
rthumb 6.97604 -7.70626
lclavicle 1.08959e-014 1.07344e-014
lhumerus -30.2814 0.000702049 82.371
lradius 32.836
lwrist 7.71625
lhand -25.6555 25.8898
lfingers 7.12502
lthumb 0.878501 55.8677
rfemur -23.3985 5.48883 26.1709
rtibia 30.9835
rfoot -3.15596 -3.23347
rtoes 10.575
lfemur 5.26373 -2.85927 -18.7069
ltibia 51.4028
lfoot 19.8538 -11.2818
ltoes 21.7475
233
root 3.90787 17.886 22.8546 -3.07731 -1.49317 -3.516
lowerback 10.9621 -1.09386 1.26868
upperback -0.0110811 -1.10829 2.96069
thorax -6.13543 -0.537067 2.57506
lowerneck -17.7725 -2.25159 -2.03812
upperneck 17.7724 -2.38207 -0.782694
head 8.48311 -1.34895 -0.224502
rclavicle -1.83503e-014 -5.96354e-015
rhumerus -36.9959 -26.6841 -71.8362
rradius 21.7174
rwrist 8.76733
rhand -18.8784 22.7145
rfingers 7.12502
rthumb 7.42251 -7.13532
lclavicle -1.83503e-014 -5.96354e-015
lhumerus -30.3233 -0.608732 82.7661
lradius 32.4319
lwrist 8.11718
lhand -25.0422 25.2152
lfingers 7.12502
lthumb 1.47077 55.1899
rfemur -22.516 5.54005 27.109
rtibia 30.9759
rfoot -3.61608 -3.21005
rtoes 11.3402
lfemur 3.75863 -2.7041 -17.7322
ltibia 53.8118
lfoot 21.2682 -16.6472
ltoes 7.81854
234
root 3.88702 17.9126 23.0474 -3.14688 -1.67251 -4.06898
lowerback 11.0146 -1.0201 1.7606
upperback 0.0657436 -0.940133 3.08545
thorax -6.09595 -0.467611 2.40166
lowerneck -17.7538 -2.24675 -1.97248
upperneck 17.6021 -2.41269 -0.694705
head 8.42228 -1.34858 -0.207749
rclavicle 2.42145e-014 -4.49253e-014
rhumerus -36.5393 -26.2002 -72.3041
rradius 21.6668
rwrist 8.4516
rhand -19.081 23.0134
rfingers 7.12502
rthumb 7.22694 -6.84317
lclavicle 2.42145e-014 -4.49253e-014
lhumerus -30.4293 -1.14344 83.0997
lradius 32.2319
lwrist 8.50824
lhand -24.6953 23.3936
lfingers 7.12502
lthumb 1.80586 53.3657
rfemur -21.6335 5.92708 27.8681
rtibia 30.9143
rfoot -4.0651 -3.41016
rtoes 11.7194
lfemur 2.37876 -2.40191 -16.8855
ltibia 56.0445
lfoot 21.305 -18.9379
ltoes 4.55787
235
root 3.8657 17.9333 23.2386 -3.24676 -1.7008 -4.36705
lowerback 11.0127 -0.943388 2.00061
upperback 0.184156 -0.807996 3.14784
thorax -5.97599 -0.409094 2.30804
lowerneck -17.7402 -2.26937 -2.02057
upperneck 17.4327 -2.48018 -0.461702
head 8.3666 -1.35808 -0.128411
rclavicle 1.3741e-014 -4.25399e-014
rhumerus -36.0895 -25.7232 -72.8314
rradius 21.8451
rwrist 8.03974
rhand -18.6717 23.4572
rfingers 7.12502
rthumb 7.62205 -6.38549
lclavicle 1.3741e-014 -4.25399e-014
lhumerus -30.7107 -1.41672 83.3778
lradius 32.6412
lwrist 8.27501
lhand -25.0563 23.0233
lfingers 7.12502
lthumb 1.45723 52.9981
rfemur -20.7531 6.1395 28.3498
rtibia 30.7943
rfoot -4.40433 -3.62669
rtoes 11.7046
lfemur 1.02081 -2.21011 -16.3441
ltibia 58.1147
lfoot 20.9963 -18.9619
ltoes 6.09535
236
root 3.85375 17.9544 23.4312 -3.36942 -1.68368 -4.53879
lowerback 11.0664 -0.895648 2.26535
upperback 0.210801 -0.711085 3.11854
thorax -5.98421 -0.369428 2.11298
lowerneck -17.4331 -2.35797 -2.09763
upperneck 17.2675 -2.6294 -0.270506
head 8.26157 -1.41343 -0.0650769
rclavicle 1.9133e-015 -3.57812e-015
rhumerus -35.8212 -25.3298 -73.2379
rradius 21.9032
rwrist 7.84042
rhand -17.652 26.0433
rfingers 7.12502
rthumb 8.60619 -3.76125
lclavicle 1.9133e-015 -3.57812e-015
lhumerus -30.9346 -1.652 83.5493
lradius 32.7924
lwrist 7.60307
lhand -23.4414 27.879
lfingers 7.12502
lthumb 3.01687 57.8374
rfemur -19.8823 6.19217 28.6664
rtibia 30.7397
rfoot -4.91972 -3.79545
rtoes 11.7365
lfemur -0.302539 -2.03581 -16.0146
ltibia 60.0328
lfoot 19.6191 -18.7653
ltoes 5.6158
237
root 3.84234 17.9792 23.6214 -3.42566 -1.66091 -4.76324
lowerback 11.1702 -0.89891 2.51728
upperback 0.129475 -0.673204 3.14502
thorax -6.13242 -0.357966 1.99699
lowerneck -16.9741 -2.38482 -2.17295
upperneck 17.1018 -2.6828 -0.154992
head 8.12834 -1.43207 -0.0138467
rclavicle -2.23633e-016 -1.78906e-014
rhumerus -35.5752 -24.8939 -73.5233
rradius 21.8654
rwrist 8.06203
rhand -17.1294 28.5789
rfingers 7.12502
rthumb 9.11047 -1.20431
lclavicle -2.23633e-016 -1.78906e-014
lhumerus -31.1252 -1.5855 83.687
lradius 32.4426
lwrist 6.96117
lhand -15.6205 39.4108
lfingers 7.12502
lthumb 10.5662 69.1252
rfemur -19.1126 6.10526 29.0337
rtibia 30.6643
rfoot -5.50625 -3.77427
rtoes 12.0826
lfemur -1.75748 -1.84501 -15.6334
ltibia 61.8721
lfoot 17.4834 -17.6928
ltoes 7.07586
238
root 3.83007 18.0062 23.8096 -3.53697 -1.65722 -4.67655
lowerback 11.1842 -0.816564 2.52949
upperback 0.176986 -0.571111 3.01887
thorax -6.0927 -0.309908 1.83962
lowerneck -16.7817 -2.42745 -2.12802
upperneck 17.026 -2.76565 -0.116925
head 8.06968 -1.46459 -0.0154144
rclavicle 6.53505e-015 -9.93923e-015
rhumerus -35.0965 -24.5473 -73.9544
rradius 21.9619
rwrist 8.3753
rhand -17.1178 25.9508
rfingers 7.12502
rthumb 9.12164 -3.83196
lclavicle 6.53505e-015 -9.93923e-015
lhumerus -31.1742 -1.85971 83.8323
lradius 32.051
lwrist 6.83024
lhand -24.2806 26.8938
lfingers 7.12502
lthumb 2.20633 56.8621
rfemur -18.1957 5.97253 29.0673
rtibia 30.5636
rfoot -6.15724 -3.71437
rtoes 12.3492
lfemur -3.12513 -1.64859 -15.6364
ltibia 63.5426
lfoot 15.1343 -16.7417
ltoes 5.94244
239
root 3.81665 18.0257 23.9963 -3.58776 -1.71767 -4.6739
lowerback 11.0375 -0.693737 2.5644
upperback 0.301546 -0.420449 2.93291
thorax -5.881 -0.237336 1.69977
lowerneck -16.8376 -2.45327 -2.07227
upperneck 17.0777 -2.83111 -0.0321755
head 8.09774 -1.48316 -0.00512308
rclavicle 5.01931e-015 2.66371e-014
rhumerus -34.5279 -24.2826 -74.4259
rradius 22.2351
rwrist 8.96639
rhand -15.9676 23.8046
rfingers 7.12502
rthumb 10.2314 -5.9266
lclavicle 5.01931e-015 2.66371e-014
lhumerus -31.4987 -1.88423 83.9281
lradius 32.3642
lwrist 6.4734
lhand -27.2415 20.7661
lfingers 7.12502
lthumb -0.653326 50.7449
rfemur -17.3576 6.04194 29.1987
rtibia 30.3799
rfoot -6.61586 -3.77642
rtoes 11.2165
lfemur -4.58156 -1.32325 -15.5078
ltibia 65.1033
lfoot 12.7877 -16.7316
ltoes 0.871475
240
root 3.80245 18.0371 24.1834 -3.6642 -1.77489 -5.03308
lowerback 10.9559 -0.624302 2.89966
upperback 0.397053 -0.290846 2.98265
thorax -5.73742 -0.181259 1.53976
lowerneck -17.0653 -2.49802 -2.01288
upperneck 17.3622 -2.92194 0.0579303
head 8.23457 -1.5128 -0.000621069
rclavicle 1.54182e-014 -3.73715e-014
rhumerus -33.9516 -23.609 -75.01
rradius 22.3936
rwrist 9.18817
rhand -15.5435 24.1067
rfingers 7.12502
rthumb 10.6405 -5.60387
lclavicle 1.54182e-014 -3.73715e-014
lhumerus -32.0262 -1.47394 83.9592
lradius 32.9145
lwrist 5.7467
lhand -26.1296 22.5158
lfingers 7.12502
lthumb 0.420534 52.4951
rfemur -16.434 6.16756 29.7279
rtibia 30.2738
rfoot -7.12027 -3.93536
rtoes 11.1972
lfemur -5.95334 -0.982059 -14.9262
ltibia 66.5046
lfoot 10.5551 -16.462
ltoes -0.902793
